<svg width="157" height="116" viewBox="0 0 157 116" fill="none" xmlns="http://www.w3.org/2000/svg">
<path d="M103.72 23.0706L118.569 23.5784L52.5589 205.552L39.3947 200.787L103.72 23.0706Z" fill="#6D4A24"/>
<rect x="63.7723" y="21.2949" width="89.3351" height="61.1453" transform="rotate(19.8979 63.7723 21.2949)" fill="#D9D9D9"/>
<path d="M98.2201 50.0041L98.2874 49.7477C98.3636 49.5371 98.4837 49.3934 98.6476 49.3166C98.8266 49.2452 98.9913 49.2368 99.1418 49.2912C99.5179 49.4274 99.6844 49.7429 99.6414 50.2378C99.5093 51.4492 99.2716 52.5287 98.9286 53.4766C98.5855 54.4244 98.0949 55.4039 97.4566 56.415C96.8238 57.4111 96.1123 58.3191 95.322 59.1391C94.5372 59.9441 93.6646 60.5216 92.7041 60.8716C91.7437 61.2216 90.8497 61.2468 90.0222 60.9473C89.2098 60.6533 88.6262 60.2208 88.2713 59.6499C87.9314 59.0845 87.7896 58.3951 87.8458 57.5817C87.9149 56.2624 88.2517 54.7678 88.8562 53.0978C89.4661 51.4128 90.2019 49.85 91.0637 48.4093C91.1851 48.215 91.3352 48.0821 91.5142 48.0108C91.6932 47.9394 91.8503 47.9283 91.9857 47.9773C92.4371 48.1407 92.5811 48.448 92.4177 48.8994L92.1948 49.3036C91.4816 50.4748 90.929 51.602 90.5369 52.6853C90.1503 53.7534 89.8883 54.5009 89.7508 54.9276C89.6188 55.3392 89.4924 55.8295 89.3716 56.3983C89.2713 56.9576 89.2262 57.4347 89.2364 57.8297C89.252 58.2097 89.3516 58.5691 89.5353 58.9078C89.7244 59.2315 90.007 59.4614 90.3832 59.5976C91.2106 59.8971 92.1133 59.7303 93.0911 59.0973C94.0743 58.4493 94.9574 57.5608 95.7404 56.4319C96.5384 55.3084 97.1226 54.2352 97.4929 53.2121C97.8686 52.174 98.111 51.1047 98.2201 50.0041ZM81.703 49.5899L84.6613 50.5841C85.1126 50.7474 85.2566 51.0548 85.0932 51.5061C84.9462 51.9123 84.6389 52.0563 84.1712 51.9381C83.7185 51.8253 82.7325 51.4939 81.2129 50.9439C80.9421 50.8459 80.6254 50.6632 80.2628 50.3958C79.9001 50.1284 79.6557 49.8868 79.5297 49.671C79.0282 51.6676 78.6716 53.64 78.4599 55.5882C78.4247 55.7796 78.3961 55.9054 78.3744 55.9656C78.211 56.417 77.9036 56.5609 77.4523 56.3976C77.0912 56.2669 76.9397 55.9568 76.9978 55.4673C77.1299 54.256 77.3752 52.7793 77.7334 51.0373C78.1122 49.2856 78.4514 47.996 78.7509 47.1686C79.29 45.6791 80.2906 44.7481 81.7527 44.3755C83.2353 43.9933 84.8266 44.1098 86.5267 44.7252C87.6099 45.1173 88.3288 45.5051 88.6835 45.8887C89.0435 46.2572 89.1773 46.5694 89.0847 46.8251C88.9213 47.2765 88.614 47.4205 88.1626 47.2571C88.0122 47.2027 87.8384 47.0717 87.6412 46.8642C87.4441 46.6567 86.9092 46.395 86.0366 46.0792C84.7126 45.6 83.4911 45.4726 82.3718 45.6971C81.2581 45.9066 80.5024 46.5604 80.1049 47.6587C79.996 47.9596 80.1585 48.3332 80.5925 48.7796C81.047 49.2163 81.4172 49.4864 81.703 49.5899ZM114.956 61.4472C114.012 61.752 113.246 62.1045 112.659 62.5045C112.071 62.9045 111.655 63.4431 111.41 64.1201C111.171 64.782 111.034 65.2771 111 65.6052C110.967 65.9333 110.936 66.135 110.909 66.2102C110.746 66.6616 110.438 66.8056 109.987 66.6422C109.385 66.4244 109.411 65.4128 110.064 63.6074C110.092 63.5322 110.408 62.5407 111.014 60.6328C111.619 58.725 112.18 57.0565 112.698 55.6272C112.861 55.1759 113.168 55.0319 113.62 55.1952C114.071 55.3586 114.215 55.666 114.052 56.1173C113.714 57.0501 113.169 58.6735 112.417 60.9875C114.177 60.0253 116.767 59.3803 120.187 59.0526C120.471 59.0194 120.704 59.0355 120.884 59.1008C121.336 59.2642 121.48 59.5715 121.316 60.0229C121.251 60.2034 121.134 60.3143 120.966 60.3556C120.803 60.3818 120.278 60.4468 119.39 60.5507C118.501 60.6545 117.576 60.8131 116.614 61.0264C116.173 62.245 115.945 63.3198 115.932 64.2507C115.933 65.1871 116.089 65.9326 116.399 66.4871C116.729 67.032 116.861 67.3948 116.796 67.5753C116.633 68.0266 116.325 68.1706 115.874 68.0073C115.693 67.9419 115.431 67.6088 115.087 67.0078C114.339 65.5968 114.295 63.7433 114.956 61.4472ZM106.036 65.5695C104.402 65.7606 102.93 65.6193 101.621 65.1455C100.312 64.6717 99.4624 63.7517 99.0722 62.3853C98.6819 61.0189 98.7373 59.6436 99.2383 58.2595C99.7393 56.8754 100.392 55.6824 101.197 54.6806C102.023 53.6692 103.013 52.9302 104.169 52.4637C105.345 51.9876 106.535 51.9674 107.739 52.403C108.22 52.5773 108.636 52.8638 108.985 53.2624C109.334 53.661 109.46 53.9957 109.362 54.2666C109.198 54.7179 108.891 54.8619 108.44 54.6985C108.304 54.6495 108.128 54.5008 107.912 54.2523C107.711 54.0093 107.49 53.8442 107.249 53.7571C106.316 53.4195 105.389 53.4666 104.467 53.8986C102.766 54.6953 101.485 56.2822 100.625 58.6593C100.249 59.6974 100.172 60.733 100.394 61.7661C100.621 62.7842 101.186 63.4566 102.088 63.7833C103.202 64.1863 104.487 64.3026 105.944 64.1323C106.264 64.0949 106.469 64.0926 106.559 64.1252C107.01 64.2886 107.154 64.596 106.991 65.0473C106.926 65.2278 106.829 65.3544 106.7 65.4271C106.577 65.4847 106.356 65.5322 106.036 65.5695ZM65.9098 59.6642L62.735 67.4483C62.4082 68.351 63.975 69.4286 67.4353 70.6811C67.8867 70.8444 68.0306 71.1518 67.8673 71.6031C67.7039 72.0545 67.3966 72.1985 66.9452 72.0351C62.5822 70.4559 60.7275 68.7636 61.3809 66.9582L64.5558 59.1741L64.9148 57.9002C65.0836 57.4338 65.3936 57.2823 65.845 57.4457C66.2512 57.5927 66.3952 57.9 66.277 58.3677C66.2064 58.7506 66.0841 59.1827 65.9098 59.6642ZM78.6918 71.667C78.3273 73.8492 78.1874 75.3641 78.272 76.2114C78.3011 76.4602 78.2802 76.6824 78.2094 76.8779C78.0461 77.3293 77.7387 77.4733 77.2874 77.3099C77.0467 77.2228 76.9027 76.9154 76.8554 76.3878C76.7043 74.9719 76.8839 72.995 77.3941 70.4571C76.4462 70.114 75.1232 69.7968 73.425 69.5054L70.7816 73.4237C70.6343 73.6426 70.489 73.7857 70.3455 73.8529C70.2171 73.9255 70.0552 73.9265 69.8596 73.8557C69.4082 73.6923 69.2642 73.385 69.4276 72.9336C69.4712 72.8133 69.5189 72.7284 69.5708 72.6791L71.9543 69.1262L71.6158 69.0037C71.1644 68.8404 71.0204 68.533 71.1838 68.0817C71.3472 67.6303 71.6545 67.4863 72.1059 67.6497C72.3767 67.7477 72.6051 67.8219 72.791 67.8722C73.6313 66.6789 74.75 65.1866 76.1471 63.3951C77.0422 62.2387 77.9561 61.8293 78.8888 62.1669C79.1596 62.2649 79.4074 62.4737 79.632 62.7933C79.8772 63.1032 79.9776 63.5309 79.9333 64.0764C79.8328 65.4353 79.5363 67.3359 79.0437 69.778C79.2517 69.9554 79.4941 70.2729 79.771 70.7304C80.0532 71.1729 80.1589 71.4919 80.0882 71.6875C79.9248 72.1388 79.6174 72.2828 79.1661 72.1195C79.0608 72.0813 78.9027 71.9305 78.6918 71.667ZM77.6811 69.0296C78.4153 65.4497 78.6545 63.6135 78.3987 63.521C78.2633 63.472 78.1519 63.4742 78.0645 63.5276C77.9826 63.566 77.9211 63.5948 77.8801 63.614C77.8391 63.6332 77.7797 63.6798 77.7019 63.7537C77.6392 63.8331 77.5948 63.8851 77.5689 63.9097C77.4133 64.0576 77.3191 64.1767 77.2864 64.2669C75.8429 66.0926 74.8504 67.4009 74.3089 68.1918C75.493 68.3992 76.617 68.6785 77.6811 69.0296ZM83.8513 66.9239C84.0146 66.4725 84.322 66.3285 84.7733 66.4919C85.1194 66.6171 85.2634 66.9245 85.2053 67.414C85.1758 67.7776 85.0607 68.5187 84.86 69.6372C84.6648 70.7406 83.8893 73.1654 82.5333 76.9116C82.37 77.3629 82.0626 77.5069 81.6113 77.3435C81.1599 77.1802 81.0159 76.8728 81.1793 76.4215C82.4644 72.8709 83.206 70.5869 83.4041 69.5696C83.5737 68.6781 83.6801 68.0785 83.7234 67.7709C83.7705 67.3115 83.8132 67.0292 83.8513 66.9239ZM87.0168 66.6403L84.9367 66.0405C84.4854 65.8772 84.3414 65.5698 84.5047 65.1185C84.6518 64.7123 84.9591 64.5683 85.4268 64.6865C86.3622 64.923 87.0555 65.1229 87.5069 65.2863C88.9512 65.809 89.9578 66.6243 90.5267 67.7321C91.0957 68.8398 91.1895 69.9203 90.8084 70.9734C90.4272 72.0266 89.7072 72.7699 88.6484 73.2034C89.3628 73.7683 89.8859 74.3916 90.2178 75.0732C90.5701 75.7452 90.6455 76.3595 90.444 76.9162C90.2425 77.4729 89.965 77.9339 89.6115 78.2995C89.2635 78.6499 88.9125 78.9143 88.5588 79.0925C88.205 79.2707 87.7206 79.4102 87.1056 79.5109C86.4906 79.6116 85.9781 79.6643 85.568 79.669C85.1579 79.6737 84.5606 79.6787 83.7759 79.684C82.9913 79.6893 82.437 79.6928 82.113 79.6947C81.7836 79.7116 81.491 79.6737 81.2352 79.5811C80.7839 79.4178 80.6426 79.1029 80.8115 78.6365C80.8877 78.4259 81.2019 78.3099 81.7541 78.2886C82.3214 78.2727 82.9543 78.2636 83.6528 78.2612C84.3514 78.2587 84.8804 78.2545 85.2399 78.2485C85.6144 78.248 86.0504 78.2186 86.5479 78.1605C87.0304 78.0969 87.4123 78.0054 87.6937 77.8861C88.3795 77.5898 88.8395 77.1182 89.0736 76.4712C89.2316 76.0349 88.9498 75.4735 88.2284 74.787C87.5124 74.0855 86.7332 73.5822 85.8907 73.2773C85.4393 73.1139 85.2953 72.8065 85.4587 72.3552C85.6221 71.9038 85.9294 71.7599 86.3808 71.9232C86.9826 72.141 87.5908 72.106 88.2055 71.818C88.8202 71.53 89.2419 71.0701 89.4707 70.4382C89.7048 69.7913 89.6163 69.0956 89.2051 68.3512C88.7993 67.5918 88.0699 67.0215 87.0168 66.6403ZM103.466 72.6708L101.46 71.868C100.106 71.3779 98.6371 71.0165 97.0538 70.7837C96.3733 71.8646 95.7537 73.0357 95.1951 74.2969C95.8405 74.3943 97.0734 74.7725 98.8938 75.4314C99.6159 75.6928 100.207 76.0343 100.667 76.4561C101.132 76.8627 101.308 77.224 101.193 77.54C101.03 77.9913 100.723 78.1353 100.271 77.9719C100.166 77.9338 99.9601 77.7742 99.6535 77.493C99.3469 77.2119 98.9303 76.976 98.4037 76.7854C96.5833 76.1265 95.3101 75.7423 94.584 75.6326C94.1644 76.6038 93.8376 77.4128 93.6034 78.0598C93.3693 78.7067 93.2848 79.3397 93.3499 79.9589C93.4356 80.5684 93.6665 80.9413 94.0426 81.0774C95.9533 81.769 97.5799 82.1876 98.9225 82.3332C99.5487 82.3897 99.8843 82.4261 99.9295 82.4424C100.381 82.6058 100.525 82.9132 100.361 83.3645C100.318 83.4849 100.211 83.591 100.042 83.6828C99.8781 83.7596 99.5508 83.7943 99.06 83.7868C98.5693 83.7793 97.753 83.637 96.6111 83.3598C95.4747 83.0676 94.4853 82.769 93.6428 82.4641C92.8153 82.1646 92.2772 81.5359 92.0283 80.578C91.7945 79.6256 91.8355 78.7131 92.1514 77.8405C92.9083 75.7492 94.0065 73.3732 95.4461 70.7123C95.7965 70.0734 95.9744 69.7464 95.9798 69.7314C96.2568 69.3892 96.6045 69.2513 97.0229 69.3177C98.8332 69.5815 100.272 69.9068 101.341 70.2934C102.409 70.6801 103.281 71.0212 103.956 71.3168C104.402 71.4952 104.544 71.8101 104.38 72.2614C104.222 72.6977 103.918 72.8342 103.466 72.6708ZM111.38 88.8841C110.928 88.7207 110.784 88.4133 110.948 87.962C111.111 87.5106 111.418 87.3667 111.87 87.53C114.879 88.6191 117.029 89.1422 118.321 89.0993C118.924 89.0793 119.266 88.9564 119.348 88.7307C119.429 88.5051 119.315 88.2339 119.004 87.9172C118.708 87.606 118.176 87.1495 117.407 86.5478C116.653 85.9516 116.085 85.474 115.705 85.115C113.84 83.4022 113.246 81.6131 113.921 79.7475C114.362 78.5289 115.259 77.6964 116.612 77.2502C117.97 76.7888 119.386 76.825 120.86 77.3587C121.673 77.6527 122.263 78.1385 122.63 78.816C123.012 79.4989 123.081 80.1789 122.836 80.8559C122.591 81.5329 122.11 82.0394 121.393 82.3754C120.676 82.7113 120.219 82.8439 120.024 82.7731C119.572 82.6098 119.428 82.3024 119.592 81.8511C119.662 81.6555 119.964 81.4329 120.497 81.1833C121.05 80.9241 121.365 80.6892 121.441 80.4786C121.572 80.1175 121.535 79.7724 121.331 79.4433C121.142 79.1196 120.829 78.8788 120.393 78.7209C119.279 78.3179 118.221 78.258 117.216 78.5411C116.233 78.8145 115.596 79.35 115.308 80.1474C115.019 80.9447 115.011 81.648 115.284 82.2573C115.572 82.872 115.951 83.4005 116.42 83.8427C116.91 84.2753 117.406 84.6928 117.907 85.0954C118.413 85.4828 118.827 85.8198 119.149 86.1064C119.491 86.3834 119.82 86.698 120.135 87.0502C120.774 87.7751 120.966 88.4912 120.71 89.1983C120.378 90.116 119.468 90.5609 117.981 90.5331C116.514 90.4956 114.313 89.9459 111.38 88.8841ZM107.43 74.6925L104.255 82.4767C103.928 83.3794 105.495 84.457 108.955 85.7094C109.407 85.8728 109.551 86.1802 109.387 86.6315C109.224 87.0829 108.917 87.2268 108.465 87.0635C104.102 85.4843 102.248 83.792 102.901 81.9866C102.901 81.9866 103.959 79.3919 106.076 74.2024L106.435 72.9286C106.604 72.4622 106.914 72.3107 107.365 72.474C107.771 72.6211 107.915 72.9284 107.797 73.3961C107.727 73.779 107.604 74.2111 107.43 74.6925Z" fill="#373466"/>
</svg>
