<svg width="151" height="111" viewBox="0 0 151 111" fill="none" xmlns="http://www.w3.org/2000/svg">
<path d="M100.72 18.0706L115.569 18.5784L49.5589 200.552L36.3947 195.787L100.72 18.0706Z" fill="#6D4A24"/>
<rect x="60.7723" y="16.2949" width="89.3351" height="61.1453" transform="rotate(19.8979 60.7723 16.2949)" fill="#D9D9D9"/>
<path d="M53.8308 39.9132L54.3805 38.4531L57.3951 30.6535C57.4495 30.503 57.5741 30.4134 57.7689 30.3847C57.9636 30.3559 58.1864 30.3869 58.4371 30.4777C59.0389 30.6955 59.2627 31.0175 59.1084 31.4438C59.0585 31.5817 58.6021 32.6076 57.7392 34.5215C56.8888 36.44 56.3933 37.5935 56.2526 37.9822C56.2526 37.9822 56.0121 38.6466 55.5311 39.9756C55.1907 40.9159 55.0674 41.4526 55.161 41.5858C55.3263 41.7165 55.5344 41.8273 55.7851 41.918L58.5613 42.7102C59.1505 42.9235 59.368 43.2432 59.2137 43.6695C59.0912 44.008 58.8375 44.1998 58.4525 44.2448C58.0846 44.2818 57.7394 44.2561 57.4169 44.1677C57.0989 44.0668 56.7143 43.9347 56.2629 43.7713C54.2946 43.0588 53.2516 42.6104 53.134 42.4261C53.0734 42.3191 53.1254 42.0188 53.2898 41.5253C53.4588 41.0193 53.5733 40.6637 53.6334 40.4586C53.706 40.258 53.7718 40.0762 53.8308 39.9132ZM68.7305 34.2459C69.044 34.3594 69.2573 34.5926 69.3706 34.9456C69.4839 35.2985 69.5533 35.9688 69.5787 36.9564C69.6289 39.2859 69.2405 42.7683 68.4135 47.4035C68.4079 47.4582 68.3869 47.5357 68.3506 47.636C68.3188 47.7238 68.2199 47.8014 68.0536 47.8688C67.9045 47.9283 67.7171 47.9172 67.4914 47.8355C67.2783 47.7583 67.1147 47.6424 67.0005 47.4876C66.8909 47.3204 66.8541 47.1085 66.8902 46.8522C66.9308 46.5833 67.0115 46.0665 67.1322 45.302C67.4077 43.6008 67.5066 42.7008 67.429 42.6018C67.3103 42.4596 66.8428 42.184 66.0266 41.7751C65.2229 41.3708 64.6831 41.1187 64.4073 41.0189C64.1315 40.919 63.9594 40.8851 63.8911 40.9171C63.5928 41.036 62.7343 42.4481 61.3156 45.1534C61.1792 45.3735 60.8979 45.4064 60.4716 45.2521C60.0453 45.0978 59.898 44.8389 60.0296 44.4753C60.3563 43.5726 61.3125 41.969 62.8982 39.6644C64.4839 37.3598 65.6459 35.8732 66.3842 35.2046C67.3216 34.3386 68.1037 34.019 68.7305 34.2459ZM67.8998 36.3062C67.7117 36.2381 67.1838 36.678 66.316 37.6259C65.4528 38.5613 64.9735 39.1607 64.8783 39.4239C64.8556 39.4866 64.8522 39.535 64.8682 39.5692C64.9322 39.7058 65.2954 39.9365 65.9577 40.2613C66.62 40.5861 67.064 40.7894 67.2897 40.8711C67.5154 40.9527 67.6453 40.9856 67.6794 40.9696C67.7181 40.9411 67.767 40.8453 67.826 40.6823C67.8895 40.5068 67.9698 39.756 68.0669 38.4299C68.1686 37.0912 68.1129 36.3833 67.8998 36.3062ZM72.2939 49.5099L69.8883 48.5754C69.941 47.9989 70.7172 45.5999 72.2168 41.3783L72.7001 40.043C73.0859 38.9774 73.4789 38.205 73.8791 37.726C74.2839 37.2344 74.8673 36.9351 75.6292 36.828C76.0142 36.783 76.495 36.8649 77.0717 37.0736C77.661 37.2869 78.0987 37.4879 78.3849 37.6766C79.1614 38.1561 79.6139 38.6886 79.7423 39.2739C79.8833 39.8638 79.8086 40.5599 79.5182 41.3623C79.1143 42.4781 78.5224 43.1927 77.7426 43.506C78.0299 43.6525 78.2763 43.9118 78.4819 44.284C78.6875 44.6562 78.8344 45.0143 78.9226 45.3582C79.0671 45.9776 78.9828 46.7199 78.6696 47.585C78.1795 48.939 77.4164 49.7546 76.3802 50.0319C75.361 50.3011 73.9989 50.1271 72.2939 49.5099ZM74.4429 39.9294L73.7045 42.0869C73.7296 42.096 73.9518 42.148 74.3711 42.2431C74.795 42.3256 75.1562 42.3855 75.4547 42.4226C76.8299 42.58 77.724 42.0883 78.1369 40.9474C78.3411 40.3832 78.3216 39.9082 78.0784 39.5224C77.8477 39.1412 77.4628 38.853 76.9237 38.6578C76.2467 38.4128 75.746 38.3663 75.4216 38.5182C75.285 38.5822 75.1717 38.6405 75.0818 38.693C74.9964 38.733 74.914 38.8237 74.8344 38.9651C74.7549 39.1065 74.6975 39.2062 74.6623 39.2644C74.6396 39.3271 74.5965 39.4462 74.533 39.6217C74.482 39.8017 74.4519 39.9043 74.4429 39.9294ZM77.2243 45.4666C77.1489 45.2833 76.9999 45.0876 76.7775 44.8795C76.555 44.6714 76.1931 44.4765 75.6916 44.295C75.2026 44.118 74.3331 43.8955 73.0831 43.6274C72.3752 45.5832 71.9278 46.9172 71.7409 47.6295C73.2077 48.1604 74.2698 48.4385 74.9271 48.4637C75.589 48.4764 76.0702 48.3811 76.3706 48.1779C76.6881 47.9667 76.9036 47.7044 77.017 47.3909C77.135 47.065 77.2104 46.837 77.2433 46.7071C77.2932 46.5692 77.3214 46.3738 77.3278 46.1209C77.3514 45.86 77.3169 45.6419 77.2243 45.4666ZM81.4641 45.5549C81.3294 45.3785 81.3007 45.1838 81.3778 44.9706C81.455 44.7575 81.5943 44.5881 81.7957 44.4625C82.1993 43.1906 82.653 41.8589 83.1567 40.4672C83.3409 40.1936 83.5331 40.015 83.7335 39.9315C83.9464 39.8526 84.2101 39.8488 84.5246 39.9201C86.1523 40.5943 87.9315 41.2809 89.8623 41.9797C90.3024 42.2525 90.4657 42.5456 90.3523 42.859C90.1617 43.3856 89.5365 43.5067 88.4767 43.2223C88.1963 43.135 87.8931 43.0324 87.5672 42.9144L86.3448 42.4719C86.1066 42.3857 85.4665 42.0973 84.4246 41.6068C83.8573 43.1739 83.4922 44.2612 83.329 44.8686C83.989 45.1217 85.2655 45.5908 87.1586 46.276C87.5782 46.5272 87.729 46.8157 87.611 47.1417C87.4976 47.4551 87.2273 47.6338 86.8002 47.6777C86.7535 47.6892 86.6755 47.6893 86.5661 47.6781L83.3331 46.4441C83.1325 46.3715 82.965 46.325 82.8305 46.3047L81.7349 49.5666C81.4717 50.2937 81.2646 50.8072 81.1135 51.107L85.497 52.6298C85.8755 52.8377 86.0148 53.0796 85.915 53.3554C85.8469 53.5435 85.6911 53.6998 85.4475 53.8243C85.2164 53.9533 84.979 54.0021 84.7352 53.9706L79.8936 52.3032C79.6052 52.1989 79.4228 52.0761 79.3463 51.935C79.2743 51.7813 79.2836 51.5791 79.3744 51.3283C79.5516 50.9954 79.7809 50.4403 80.0623 49.663L80.5387 48.3466L81.4641 45.5549ZM87.8616 52.2308L88.4113 50.7707L91.4259 42.9711C91.4803 42.8206 91.6049 42.731 91.7997 42.7022C91.9944 42.6735 92.2172 42.7045 92.4679 42.7952C93.0697 43.0131 93.2935 43.3351 93.1392 43.7614C93.0893 43.8993 92.6329 44.9252 91.77 46.8391C90.9196 48.7575 90.4241 49.9111 90.2834 50.2998C90.2834 50.2998 90.0429 50.9642 89.5619 52.2932C89.2215 53.2335 89.0981 53.7702 89.1918 53.9033C89.3571 54.0341 89.5652 54.1449 89.8159 54.2356L92.5921 55.0278C93.1813 55.241 93.3988 55.5608 93.2445 55.9871C93.122 56.3256 92.8682 56.5173 92.4833 56.5623C92.1154 56.5993 91.7702 56.5737 91.4477 56.4853C91.1297 56.3844 90.7451 56.2522 90.2937 56.0889C88.3253 55.3764 87.2824 54.928 87.1648 54.7436C87.1042 54.6366 87.1562 54.3364 87.3206 53.8429C87.4896 53.3369 87.6041 52.9813 87.6642 52.7762C87.7368 52.5756 87.8026 52.3938 87.8616 52.2308ZM97.6043 54.5235L96.0298 53.9962C95.8543 53.9327 95.7265 53.8155 95.6465 53.6448C95.5791 53.4785 95.5862 53.2826 95.6679 53.0569C95.7541 52.8187 95.8996 52.6516 96.1045 52.5556C96.3094 52.4596 96.5498 52.4616 96.8256 52.5614L97.8412 52.929L100.568 53.916C100.957 54.0566 101.27 54.1701 101.508 54.2563C101.963 54.4493 102.109 54.7715 101.945 55.2228C101.868 55.4359 101.725 55.5968 101.516 55.7053C101.323 55.8058 101.089 55.8062 100.813 55.7063L97.6043 54.5235ZM109.368 49.1889L111.469 49.9068C112.397 50.2426 112.772 50.655 112.595 51.144C112.532 51.3195 112.461 51.4358 112.384 51.4928C112.311 51.5374 112.255 51.5739 112.217 51.6025C112.178 51.631 112.117 51.6442 112.032 51.642C111.864 51.6377 111.727 51.6237 111.622 51.5999C111.517 51.5762 111.446 51.5575 111.408 51.5438C111.261 51.519 111.023 51.4539 110.692 51.3484C110.362 51.243 109.883 51.0768 109.256 50.8499C108.642 50.6275 107.892 50.3279 107.008 49.951L105.755 53.4113L109.592 54.7999C109.73 54.8499 109.832 54.9579 109.9 55.1241C109.98 55.2949 109.993 55.4555 109.938 55.6059C109.729 56.1827 109.381 56.3825 108.892 56.2056L105.224 54.8782L103.516 59.8326C103.285 60.472 102.95 60.7123 102.511 60.5535C102.085 60.3992 101.938 60.0201 102.072 59.4161C102.102 59.2144 102.653 57.6131 103.726 54.6122C104.815 51.6032 105.428 49.8685 105.567 49.4081C105.085 49.2903 104.948 48.9431 105.157 48.3664C105.211 48.2159 105.333 48.0756 105.522 47.9455C105.715 47.8028 105.858 47.7411 105.95 47.7603C106.055 47.7841 106.177 47.8209 106.314 47.8708C106.465 47.9253 106.813 48.0797 107.359 48.3341C108.109 48.6906 108.779 48.9756 109.368 49.1889ZM110.591 62.4996C110.509 62.7253 110.334 62.8959 110.065 63.0113C109.801 63.1143 109.55 63.1226 109.312 63.0364C109.086 62.9547 108.984 62.7475 109.005 62.4149C109.566 60.7463 110.144 59.0909 110.739 57.4485L112.398 52.6889C112.743 51.7361 113.399 51.2362 114.366 51.1892C115.156 51.1208 116.015 51.2545 116.943 51.5903C117.419 51.7627 117.884 52.0656 118.337 52.499C118.807 52.9243 119.173 53.4398 119.436 54.0454C119.716 54.6431 119.761 55.2052 119.57 55.7317C119.384 56.2458 118.944 56.7175 118.25 57.1468C117.56 57.5636 116.78 57.8769 115.91 58.0867C115.045 58.2839 114.239 58.3751 113.493 58.3602C114.364 59.5972 115.062 60.8424 115.587 62.0958C116.116 63.3367 116.287 64.2141 116.101 64.7282C116.042 64.8912 115.904 65.0184 115.687 65.1098C115.474 65.1887 115.248 65.1851 115.01 65.0989C114.784 65.0172 114.626 64.8466 114.536 64.587C114.501 63.8226 114.226 62.9362 113.712 61.9277C113.215 60.9112 112.573 59.8846 111.785 58.8481L110.591 62.4996ZM112.558 56.8306C113.411 57.097 114.479 57.0863 115.76 56.7985C117.053 56.5152 117.796 56.1103 117.986 55.5837C118.181 55.0446 118.068 54.5356 117.646 54.0566C117.223 53.5777 116.649 53.2066 115.922 52.9434C115.207 52.6848 114.605 52.566 114.115 52.5873C113.871 53.2221 113.352 54.6366 112.558 56.8306ZM119.976 59.4944C119.841 59.3181 119.813 59.1233 119.89 58.9102C119.967 58.697 120.106 58.5277 120.308 58.4021C120.711 57.1302 121.165 55.7984 121.669 54.4068C121.853 54.1331 122.045 53.9545 122.245 53.8711C122.458 53.7922 122.722 53.7884 123.037 53.8597C124.664 54.5339 126.443 55.2204 128.374 55.9193C128.814 56.192 128.978 56.4851 128.864 56.7985C128.674 57.3251 128.048 57.4462 126.989 57.1619C126.708 57.0746 126.405 56.9719 126.079 56.8539L124.857 56.4115C124.618 56.3253 123.978 56.0369 122.937 55.5463C122.369 57.1135 122.004 58.2008 121.841 58.8082C122.501 59.0612 123.777 59.5304 125.671 60.2156C126.09 60.4667 126.241 60.7553 126.123 61.0812C126.009 61.3947 125.739 61.5733 125.312 61.6173C125.265 61.6287 125.187 61.6288 125.078 61.6176L121.845 60.3836C121.644 60.311 121.477 60.2645 121.342 60.2442L120.247 63.5061C119.984 64.2333 119.777 64.7468 119.625 65.0466L124.009 66.5694C124.387 66.7773 124.527 67.0191 124.427 67.2949C124.359 67.483 124.203 67.6393 123.959 67.7638C123.728 67.8929 123.491 67.9417 123.247 67.9101L118.406 66.2428C118.117 66.1384 117.935 66.0156 117.858 65.8745C117.786 65.7208 117.796 65.5186 117.886 65.2679C118.064 64.935 118.293 64.3799 118.574 63.6026L119.051 62.2861L119.976 59.4944ZM128.295 62.5057C128.161 62.3293 128.132 62.1346 128.209 61.9214C128.286 61.7083 128.426 61.5389 128.627 61.4133C129.031 60.1414 129.484 58.8097 129.988 57.418C130.172 57.1444 130.364 56.9658 130.565 56.8823C130.778 56.8034 131.041 56.7996 131.356 56.8709C132.984 57.5451 134.763 58.2317 136.694 58.9305C137.134 59.2033 137.297 59.4964 137.184 59.8098C136.993 60.3364 136.368 60.4575 135.308 60.1731C135.028 60.0858 134.724 59.9832 134.399 59.8652L133.176 59.4227C132.938 59.3365 132.298 59.0481 131.256 58.5576C130.689 60.1247 130.324 61.212 130.16 61.8194C130.82 62.0725 132.097 62.5416 133.99 63.2268C134.41 63.478 134.56 63.7665 134.442 64.0925C134.329 64.4059 134.059 64.5846 133.632 64.6285C133.585 64.64 133.507 64.6401 133.397 64.6289L130.164 63.3949C129.964 63.3223 129.796 63.2758 129.662 63.2555L128.566 66.5174C128.303 67.2445 128.096 67.758 127.945 68.0578L132.328 69.5806C132.707 69.7885 132.846 70.0304 132.746 70.3062C132.678 70.4943 132.522 70.6506 132.279 70.7751C132.048 70.9041 131.81 70.9529 131.567 70.9214L126.725 69.254C126.437 69.1497 126.254 69.0269 126.178 68.8858C126.106 68.7321 126.115 68.5299 126.206 68.2791C126.383 67.9462 126.612 67.3911 126.894 66.6138L127.37 65.2974L128.295 62.5057ZM79.0154 69.0012L76.1296 68.0418C76.1045 68.0327 76.0356 68.0077 75.9227 67.9669C75.8225 67.9306 75.7443 67.8527 75.6883 67.7331C75.6368 67.6011 75.652 67.4222 75.7336 67.1965C76.2586 66.2947 76.7862 65.6207 77.3163 65.1745C77.851 64.7158 78.527 64.2585 79.3442 63.8028C80.174 63.3516 80.7067 63.0552 80.9423 62.9136C79.4829 62.0876 78.8418 61.4301 79.0188 60.9412C79.114 60.6779 79.2727 60.4942 79.4947 60.3903C79.7337 60.2783 79.9097 60.2427 80.0225 60.2835C80.1353 60.3244 80.4672 60.5437 81.018 60.9416C81.5858 61.3315 82.1365 61.6513 82.67 61.9012C82.7303 61.8521 82.9255 61.7242 83.2555 61.5175C83.5856 61.3109 83.8877 61.1225 84.162 60.9523C84.8482 60.5059 85.4633 60.0408 86.0071 59.557C84.6331 58.691 82.6485 57.7883 80.0533 56.849C79.627 56.6947 79.4842 56.4232 79.6249 56.0345C79.6748 55.8966 79.8256 55.7739 80.0771 55.6665C80.3333 55.5465 80.5975 55.5216 80.8699 55.5918C81.1548 55.6666 81.6295 55.8242 82.2939 56.0647C82.9584 56.3053 83.9296 56.7561 85.2076 57.4171C87.0601 58.3713 87.9611 59.0944 87.9106 59.5866C87.9095 59.6288 87.884 59.7188 87.8341 59.8567C87.7887 59.9821 87.5869 60.2068 87.2285 60.5308C86.736 60.9906 85.8723 61.6139 84.6375 62.4006C84.4702 62.5102 84.3416 62.5913 84.2517 62.6438C84.3018 62.662 84.4147 62.7028 84.5902 62.7663C84.7828 62.8219 84.9081 62.8672 84.9663 62.9025C85.029 62.9252 85.1122 62.9695 85.216 63.0354C85.4395 63.2014 85.49 63.4536 85.3675 63.7921C85.2495 64.1181 84.9985 64.2825 84.6146 64.2854C84.2478 64.2802 83.9516 64.2368 83.7259 64.1551C83.5128 64.078 83.3561 64.0212 83.2558 63.9849L82.606 63.6647C81.4598 64.2849 80.6232 64.7549 80.0963 65.0747C79.1915 65.6547 78.4645 66.292 77.9154 66.9865L80.4646 67.9943C80.8532 68.135 81.2988 68.275 81.8014 68.4144L82.8698 68.6947C82.9746 68.7185 83.0772 68.7485 83.1775 68.7848C83.2903 68.8257 83.4197 68.8796 83.5656 68.9466C83.8825 69.0896 84.0037 69.3817 83.9291 69.8226C83.8658 70.1542 83.6297 70.3169 83.2207 70.3107C82.7696 70.3033 82.3372 70.2248 81.9235 70.0751C81.5052 69.9379 81.1895 69.8307 80.9764 69.7535L79.4291 69.1509C79.3037 69.1056 79.1658 69.0556 79.0154 69.0012ZM94.5216 60.4693C95.3992 60.787 96.0431 61.3391 96.4532 62.1256C97.2665 63.6395 97.2511 65.5624 96.4071 67.8943C95.5676 70.2137 94.2428 71.7974 92.4328 72.6453C91.5028 73.0602 90.575 73.1356 89.6497 72.8716C88.4586 72.4405 87.6783 71.6972 87.3088 70.6418C86.9393 69.5863 86.7919 68.5049 86.8666 67.3976C86.9583 66.2822 87.1744 65.2544 87.5147 64.3141C88.0956 62.7093 88.9567 61.525 90.0981 60.7612C91.3044 59.9359 92.7789 59.8385 94.5216 60.4693ZM93.825 61.9826C92.145 61.3745 90.8099 61.7917 89.8199 63.2342C89.5402 63.6151 89.2801 64.1377 89.0396 64.8022C88.7991 65.4667 88.6454 66.2831 88.5785 67.2515C88.4904 68.5525 88.6924 69.5615 89.1845 70.2785C89.4642 70.72 89.8799 71.0406 90.4315 71.2403C90.9832 71.44 91.5669 71.3748 92.1827 71.0446C92.803 70.702 93.3331 70.1777 93.7729 69.4719C94.2127 68.7662 94.5732 68.0246 94.8546 67.2473C95.3538 65.8682 95.5389 64.7299 95.41 63.8325C95.2936 62.9395 94.7653 62.3229 93.825 61.9826ZM107.11 65.2173C107.263 65.1875 107.44 65.2089 107.64 65.2815C107.841 65.3541 107.991 65.5076 108.09 65.7422C108.194 65.9641 108.205 66.188 108.124 66.4136C106.349 71.3157 105.295 74.2876 104.961 75.3293C104.643 76.363 104.48 76.8924 104.471 76.9174C104.371 77.1932 104.2 77.4293 103.959 77.6256C103.723 77.8093 103.51 77.8672 103.322 77.7991C103.147 77.7356 103.011 77.6794 102.915 77.6306C102.837 77.5737 102.764 77.5192 102.698 77.4669C102.632 77.4145 102.575 77.3372 102.527 77.2347L102.407 76.9786C102.375 76.9103 102.34 76.7913 102.302 76.6216C102.281 76.4439 102.262 76.3022 102.243 76.1962C102.225 76.0903 102.198 75.9104 102.162 75.6564C102.144 75.3944 102.075 74.8591 101.956 74.0505C101.85 73.2464 101.751 72.5227 101.658 71.8792C101.325 69.7028 100.923 67.9337 100.452 66.572C98.977 70.6466 97.8409 73.433 97.0434 74.931C96.8969 75.2183 96.6105 75.2848 96.1843 75.1305C95.9837 75.0579 95.8326 74.9464 95.731 74.7962C95.6419 74.6506 95.6382 74.4649 95.7199 74.2392C95.8016 74.0135 96.2947 72.7882 97.1993 70.5633C98.1164 68.3428 98.6748 66.9568 98.8745 66.4052C99.0787 65.841 99.208 65.4837 99.2625 65.3332C99.5892 64.4305 99.8419 63.9477 100.021 63.8848C100.199 63.8219 100.364 63.8177 100.514 63.8721C101.204 64.1217 101.849 65.6313 102.449 68.4008C102.566 68.9394 102.759 70.0515 103.028 71.737C103.301 73.41 103.454 74.4367 103.487 74.8172L106.086 66.931C106.476 65.8528 106.818 65.2816 107.11 65.2173ZM108.075 72.2027C107.94 72.0263 107.912 71.8316 107.989 71.6184C108.066 71.4053 108.205 71.2359 108.407 71.1103C108.81 69.8384 109.264 68.5067 109.768 67.115C109.952 66.8414 110.144 66.6628 110.344 66.5793C110.557 66.5004 110.821 66.4966 111.136 66.5679C112.763 67.2421 114.543 67.9287 116.473 68.6275C116.913 68.9003 117.077 69.1933 116.963 69.5068C116.773 70.0333 116.147 70.1545 115.088 69.8701C114.807 69.7828 114.504 69.6802 114.178 69.5622L112.956 69.1197C112.718 69.0335 112.077 68.7451 111.036 68.2546C110.468 69.8217 110.103 70.909 109.94 71.5164C110.6 71.7695 111.877 72.2386 113.77 72.9238C114.189 73.175 114.34 73.4635 114.222 73.7895C114.109 74.1029 113.838 74.2816 113.411 74.3255C113.365 74.337 113.286 74.3371 113.177 74.3259L109.944 73.0919C109.743 73.0192 109.576 72.9728 109.442 72.9525L108.346 76.2143C108.083 76.9415 107.876 77.455 107.725 77.7548L112.108 79.2776C112.486 79.4855 112.626 79.7274 112.526 80.0032C112.458 80.1913 112.302 80.3475 112.058 80.4721C111.827 80.6011 111.59 80.6499 111.346 80.6184L106.505 78.951C106.216 78.8467 106.034 78.7239 105.957 78.5828C105.885 78.4291 105.895 78.2269 105.985 77.9761C106.163 77.6432 106.392 77.0881 106.673 76.3108L107.15 74.9944L108.075 72.2027Z" fill="#373466"/>
</svg>
